<mxfile host="65bd71144e">
    <diagram id="DrFfa0bpoD2Dfh_9XkrP" name="Page-1">
        <mxGraphModel dx="1450" dy="1638" grid="1" gridSize="10" guides="1" tooltips="1" connect="1" arrows="1" fold="1" page="1" pageScale="1" pageWidth="850" pageHeight="1100" math="0" shadow="0">
            <root>
                <mxCell id="0"/>
                <mxCell id="1" parent="0"/>
                <mxCell id="101" value="" style="rounded=0;whiteSpace=wrap;html=1;fillStyle=auto;strokeColor=#666666;fontSize=11;fontColor=#000000;fillColor=#FFFFFF;" parent="1" vertex="1">
                    <mxGeometry x="-205" y="40" width="1345" height="780" as="geometry"/>
                </mxCell>
                <mxCell id="73" style="edgeStyle=none;html=1;exitX=0.5;exitY=1;exitDx=0;exitDy=0;entryX=0.5;entryY=0;entryDx=0;entryDy=0;strokeColor=#666666;fontSize=11;fontColor=#000000;elbow=vertical;" parent="1" source="5" target="6" edge="1">
                    <mxGeometry relative="1" as="geometry">
                        <Array as="points">
                            <mxPoint x="280" y="200"/>
                            <mxPoint x="55" y="200"/>
                        </Array>
                    </mxGeometry>
                </mxCell>
                <mxCell id="74" style="edgeStyle=none;html=1;entryX=0.5;entryY=0;entryDx=0;entryDy=0;strokeColor=#666666;fontSize=11;fontColor=#000000;elbow=vertical;" parent="1" source="5" target="7" edge="1">
                    <mxGeometry relative="1" as="geometry">
                        <Array as="points">
                            <mxPoint x="280" y="200"/>
                            <mxPoint x="201" y="200"/>
                        </Array>
                    </mxGeometry>
                </mxCell>
                <mxCell id="75" style="edgeStyle=none;html=1;exitX=0.5;exitY=1;exitDx=0;exitDy=0;entryX=0.5;entryY=0;entryDx=0;entryDy=0;strokeColor=#666666;fontSize=11;fontColor=#000000;elbow=vertical;" parent="1" source="5" target="8" edge="1">
                    <mxGeometry relative="1" as="geometry">
                        <Array as="points">
                            <mxPoint x="280" y="200"/>
                            <mxPoint x="355" y="200"/>
                        </Array>
                    </mxGeometry>
                </mxCell>
                <mxCell id="76" style="edgeStyle=none;html=1;entryX=0.5;entryY=0;entryDx=0;entryDy=0;strokeColor=#666666;fontSize=11;fontColor=#000000;elbow=vertical;" parent="1" source="5" target="9" edge="1">
                    <mxGeometry relative="1" as="geometry">
                        <Array as="points">
                            <mxPoint x="280" y="200"/>
                            <mxPoint x="505" y="200"/>
                        </Array>
                    </mxGeometry>
                </mxCell>
                <mxCell id="5" value="&lt;font color=&quot;#000000&quot;&gt;&lt;b&gt;External&lt;/b&gt;&lt;/font&gt;&lt;br&gt;&lt;font color=&quot;#b3b3b3&quot;&gt;--------------------------------&lt;/font&gt;&lt;br&gt;&lt;font style=&quot;font-size: 11px;&quot; color=&quot;#b3b3b3&quot;&gt;Internet to GCP traffic&lt;/font&gt;" style="html=1;fillColor=#f5f5f5;fontColor=#333333;strokeColor=#666666;rounded=1;arcSize=6;" parent="1" vertex="1">
                    <mxGeometry x="210" y="60" width="140" height="70" as="geometry"/>
                </mxCell>
                <mxCell id="30" style="edgeStyle=none;html=1;exitX=0.5;exitY=1;exitDx=0;exitDy=0;fontSize=11;fontColor=#000000;strokeColor=#666666;" parent="1" source="6" target="10" edge="1">
                    <mxGeometry relative="1" as="geometry"/>
                </mxCell>
                <mxCell id="6" value="&lt;font color=&quot;#000000&quot;&gt;HTTP or HTTPS&lt;br&gt;traffic&lt;br&gt;&lt;/font&gt;" style="html=1;rounded=1;fontSize=11;fillColor=#d5e8d4;strokeColor=#666666;fontStyle=1;fillStyle=auto;" parent="1" vertex="1">
                    <mxGeometry y="230" width="110" height="50" as="geometry"/>
                </mxCell>
                <mxCell id="37" style="edgeStyle=none;html=1;strokeColor=#666666;fontSize=11;fontColor=#000000;" parent="1" source="7" target="31" edge="1">
                    <mxGeometry relative="1" as="geometry"/>
                </mxCell>
                <mxCell id="7" value="&lt;font color=&quot;#000000&quot;&gt;TCP traffic&lt;br&gt;&lt;/font&gt;" style="html=1;rounded=1;fontSize=11;fillColor=#d5e8d4;strokeColor=#666666;fontStyle=1;fillStyle=auto;" parent="1" vertex="1">
                    <mxGeometry x="146" y="230" width="110" height="50" as="geometry"/>
                </mxCell>
                <mxCell id="72" style="edgeStyle=none;html=1;entryX=0.86;entryY=0;entryDx=0;entryDy=0;entryPerimeter=0;strokeColor=#666666;fontSize=11;fontColor=#000000;elbow=vertical;" parent="1" source="8" target="54" edge="1">
                    <mxGeometry relative="1" as="geometry">
                        <Array as="points">
                            <mxPoint x="355" y="400"/>
                            <mxPoint x="531" y="400"/>
                        </Array>
                    </mxGeometry>
                </mxCell>
                <mxCell id="8" value="&lt;font color=&quot;#000000&quot;&gt;UDP traffic&lt;br&gt;&lt;/font&gt;" style="html=1;rounded=1;fontSize=11;fillColor=#d5e8d4;strokeColor=#666666;fontStyle=1;fillStyle=auto;" parent="1" vertex="1">
                    <mxGeometry x="300" y="230" width="110" height="50" as="geometry"/>
                </mxCell>
                <mxCell id="71" style="edgeStyle=none;html=1;exitX=0.5;exitY=1;exitDx=0;exitDy=0;entryX=0.93;entryY=0;entryDx=0;entryDy=0;entryPerimeter=0;strokeColor=#666666;fontSize=11;fontColor=#000000;elbow=vertical;" parent="1" source="9" target="54" edge="1">
                    <mxGeometry relative="1" as="geometry">
                        <Array as="points">
                            <mxPoint x="505" y="370"/>
                            <mxPoint x="542" y="370"/>
                        </Array>
                    </mxGeometry>
                </mxCell>
                <mxCell id="9" value="&lt;font color=&quot;#000000&quot;&gt;ESP or ICMP&lt;br&gt;traffic&lt;br&gt;&lt;/font&gt;" style="html=1;rounded=1;fontSize=11;fillColor=#d5e8d4;strokeColor=#666666;fontStyle=1;fillStyle=auto;" parent="1" vertex="1">
                    <mxGeometry x="450" y="230" width="110" height="50" as="geometry"/>
                </mxCell>
                <mxCell id="10" value="&lt;b&gt;Regional?&lt;/b&gt;" style="rhombus;whiteSpace=wrap;html=1;fillColor=#f5f5f5;strokeColor=#666666;rounded=1;fillStyle=auto;fontSize=11;fontColor=#333333;" parent="1" vertex="1">
                    <mxGeometry y="390" width="110" height="100" as="geometry"/>
                </mxCell>
                <mxCell id="11" value="no" style="edgeStyle=orthogonalEdgeStyle;html=1;align=left;verticalAlign=bottom;endArrow=open;endSize=8;strokeColor=#666666;fontSize=11;fontColor=#000000;fillColor=#f5f5f5;startArrow=none;" parent="1" source="15" target="27" edge="1">
                    <mxGeometry x="-1" relative="1" as="geometry">
                        <mxPoint x="125" y="640" as="targetPoint"/>
                        <Array as="points"/>
                    </mxGeometry>
                </mxCell>
                <mxCell id="12" value="" style="edgeStyle=orthogonalEdgeStyle;html=1;align=left;verticalAlign=top;endArrow=open;endSize=8;strokeColor=#666666;fontSize=11;fontColor=#000000;fillColor=#f5f5f5;startArrow=none;entryX=0.5;entryY=0;entryDx=0;entryDy=0;" parent="1" source="13" target="17" edge="1">
                    <mxGeometry x="-1" relative="1" as="geometry">
                        <mxPoint x="-45" y="650" as="targetPoint"/>
                        <Array as="points">
                            <mxPoint x="-110" y="525"/>
                        </Array>
                        <mxPoint as="offset"/>
                    </mxGeometry>
                </mxCell>
                <mxCell id="14" value="" style="edgeStyle=orthogonalEdgeStyle;html=1;align=left;verticalAlign=top;endArrow=none;endSize=8;strokeColor=#666666;fontSize=11;fontColor=#000000;fillColor=#f5f5f5;" parent="1" source="10" target="13" edge="1">
                    <mxGeometry x="-1" relative="1" as="geometry">
                        <mxPoint x="55" y="650.0000000000001" as="targetPoint"/>
                        <mxPoint x="55.0344827586207" y="489.96865203761763" as="sourcePoint"/>
                        <Array as="points"/>
                    </mxGeometry>
                </mxCell>
                <mxCell id="13" value="Si" style="ellipse;shape=doubleEllipse;whiteSpace=wrap;html=1;rounded=1;fillStyle=auto;strokeColor=#6c8ebf;fontSize=11;fillColor=#dae8fc;fontColor=#000000;" parent="1" vertex="1">
                    <mxGeometry x="-125" y="510" width="30" height="30" as="geometry"/>
                </mxCell>
                <mxCell id="16" value="" style="edgeStyle=orthogonalEdgeStyle;html=1;align=left;verticalAlign=bottom;endArrow=none;endSize=8;strokeColor=#666666;fontSize=11;fontColor=#000000;fillColor=#f5f5f5;" parent="1" source="10" target="15" edge="1">
                    <mxGeometry x="-1" relative="1" as="geometry">
                        <mxPoint x="130" y="640.0000000000001" as="targetPoint"/>
                        <mxPoint x="109.96206896551729" y="440.0344827586207" as="sourcePoint"/>
                    </mxGeometry>
                </mxCell>
                <mxCell id="15" value="No" style="ellipse;shape=doubleEllipse;whiteSpace=wrap;html=1;rounded=1;fillStyle=auto;strokeColor=#b85450;fontSize=11;fillColor=#f8cecc;fontColor=#000000;" parent="1" vertex="1">
                    <mxGeometry x="40" y="510" width="30" height="30" as="geometry"/>
                </mxCell>
                <mxCell id="22" value="" style="group;fillColor=#dae8fc;strokeColor=#6c8ebf;rounded=1;" parent="1" vertex="1" connectable="0">
                    <mxGeometry x="-190" y="650" width="160" height="50" as="geometry"/>
                </mxCell>
                <mxCell id="17" value="&lt;div style=&quot;&quot;&gt;&lt;span style=&quot;color: rgb(0, 0, 0); background-color: initial;&quot;&gt;&lt;span style=&quot;white-space: pre;&quot;&gt;&#9;&lt;/span&gt;&lt;span style=&quot;white-space: pre;&quot;&gt;&#9;&lt;/span&gt;Regional external&amp;nbsp;&lt;/span&gt;&lt;/div&gt;&lt;div style=&quot;&quot;&gt;&lt;span style=&quot;color: rgb(0, 0, 0); background-color: initial;&quot;&gt;&lt;span style=&quot;white-space: pre;&quot;&gt;&#9;&lt;/span&gt;&lt;span style=&quot;white-space: pre;&quot;&gt;&#9;&lt;/span&gt;HTTP(s)&lt;br&gt;&lt;/span&gt;&lt;/div&gt;&lt;div style=&quot;&quot;&gt;&lt;span style=&quot;color: rgb(0, 0, 0); background-color: initial;&quot;&gt;&lt;span style=&quot;white-space: pre;&quot;&gt;&#9;&lt;/span&gt;&lt;span style=&quot;white-space: pre;&quot;&gt;&#9;&lt;/span&gt;Load Balancer&lt;br&gt;&lt;/span&gt;&lt;/div&gt;" style="html=1;rounded=1;fontSize=11;fillColor=#dae8fc;strokeColor=#6c8ebf;fontStyle=1;fillStyle=auto;align=left;" parent="22" vertex="1">
                    <mxGeometry width="160" height="50" as="geometry"/>
                </mxCell>
                <mxCell id="21" value="" style="sketch=0;pointerEvents=1;shadow=0;dashed=0;html=1;strokeColor=none;fillColor=#434445;aspect=fixed;labelPosition=center;verticalLabelPosition=bottom;verticalAlign=top;align=center;outlineConnect=0;shape=mxgraph.vvd.infrastructure;rounded=1;fillStyle=auto;fontSize=11;fontColor=#000000;" parent="22" vertex="1">
                    <mxGeometry x="10" y="10.369999999999996" width="30.15" height="29.25" as="geometry"/>
                </mxCell>
                <mxCell id="26" value="" style="group;fillColor=#dae8fc;strokeColor=#6c8ebf;rounded=1;" parent="1" vertex="1" connectable="0">
                    <mxGeometry x="-25" y="650" width="160" height="50" as="geometry"/>
                </mxCell>
                <mxCell id="27" value="&lt;div style=&quot;&quot;&gt;&lt;span style=&quot;color: rgb(0, 0, 0); background-color: initial;&quot;&gt;&lt;span style=&quot;white-space: pre;&quot;&gt;&#9;&lt;/span&gt;&lt;span style=&quot;white-space: pre;&quot;&gt;&#9;&lt;/span&gt;External external&amp;nbsp;&lt;/span&gt;&lt;/div&gt;&lt;div style=&quot;&quot;&gt;&lt;span style=&quot;color: rgb(0, 0, 0); background-color: initial;&quot;&gt;&lt;span style=&quot;white-space: pre;&quot;&gt;&#9;&lt;/span&gt;&lt;span style=&quot;white-space: pre;&quot;&gt;&#9;&lt;/span&gt;HTTP(s)&lt;br&gt;&lt;/span&gt;&lt;/div&gt;&lt;div style=&quot;&quot;&gt;&lt;span style=&quot;color: rgb(0, 0, 0); background-color: initial;&quot;&gt;&lt;span style=&quot;white-space: pre;&quot;&gt;&#9;&lt;/span&gt;&lt;span style=&quot;white-space: pre;&quot;&gt;&#9;&lt;/span&gt;Load Balancer&lt;br&gt;&lt;/span&gt;&lt;/div&gt;" style="html=1;rounded=1;fontSize=11;fillColor=#dae8fc;strokeColor=#6c8ebf;fontStyle=1;fillStyle=auto;align=left;" parent="26" vertex="1">
                    <mxGeometry width="160" height="50" as="geometry"/>
                </mxCell>
                <mxCell id="28" value="" style="sketch=0;pointerEvents=1;shadow=0;dashed=0;html=1;strokeColor=none;fillColor=#434445;aspect=fixed;labelPosition=center;verticalLabelPosition=bottom;verticalAlign=top;align=center;outlineConnect=0;shape=mxgraph.vvd.infrastructure;rounded=1;fillStyle=auto;fontSize=11;fontColor=#000000;" parent="26" vertex="1">
                    <mxGeometry x="10" y="10.369999999999996" width="30.15" height="29.25" as="geometry"/>
                </mxCell>
                <mxCell id="36" style="edgeStyle=none;html=1;entryX=0.5;entryY=0;entryDx=0;entryDy=0;strokeColor=#666666;fontSize=11;fontColor=#000000;startArrow=none;" parent="1" source="38" target="33" edge="1">
                    <mxGeometry relative="1" as="geometry"/>
                </mxCell>
                <mxCell id="43" style="edgeStyle=none;html=1;entryX=0.5;entryY=0;entryDx=0;entryDy=0;strokeColor=#666666;fontSize=11;fontColor=#000000;startArrow=none;" parent="1" source="41" target="40" edge="1">
                    <mxGeometry relative="1" as="geometry">
                        <Array as="points">
                            <mxPoint x="322" y="440"/>
                        </Array>
                    </mxGeometry>
                </mxCell>
                <mxCell id="31" value="&lt;b&gt;SSL offload?&lt;/b&gt;" style="rhombus;whiteSpace=wrap;html=1;fillColor=#f5f5f5;strokeColor=#666666;rounded=1;fillStyle=auto;fontSize=11;fontColor=#333333;" parent="1" vertex="1">
                    <mxGeometry x="145" y="390" width="110" height="100" as="geometry"/>
                </mxCell>
                <mxCell id="35" value="" style="group" parent="1" vertex="1" connectable="0">
                    <mxGeometry x="145" y="650" width="110" height="50" as="geometry"/>
                </mxCell>
                <mxCell id="33" value="&lt;div style=&quot;&quot;&gt;&lt;span style=&quot;color: rgb(0, 0, 0); background-color: initial;&quot;&gt;&lt;span style=&quot;white-space: pre;&quot;&gt;&#9;&lt;/span&gt;&amp;nbsp; &amp;nbsp; &amp;nbsp; SSL Proxy&amp;nbsp;&lt;/span&gt;&lt;/div&gt;" style="html=1;rounded=1;fontSize=11;fillColor=#dae8fc;strokeColor=#6c8ebf;fontStyle=1;fillStyle=auto;align=left;" parent="35" vertex="1">
                    <mxGeometry width="110" height="50" as="geometry"/>
                </mxCell>
                <mxCell id="34" value="" style="sketch=0;pointerEvents=1;shadow=0;dashed=0;html=1;strokeColor=none;fillColor=#434445;aspect=fixed;labelPosition=center;verticalLabelPosition=bottom;verticalAlign=top;align=center;outlineConnect=0;shape=mxgraph.vvd.infrastructure;rounded=1;fillStyle=auto;fontSize=11;fontColor=#000000;" parent="35" vertex="1">
                    <mxGeometry x="8" y="10.370000000000005" width="30.15" height="29.25" as="geometry"/>
                </mxCell>
                <mxCell id="39" value="" style="edgeStyle=none;html=1;entryX=0.5;entryY=0;entryDx=0;entryDy=0;strokeColor=#666666;fontSize=11;fontColor=#000000;endArrow=none;" parent="1" source="31" target="38" edge="1">
                    <mxGeometry relative="1" as="geometry">
                        <mxPoint x="200" y="489.9999999999999" as="sourcePoint"/>
                        <mxPoint x="200" y="650" as="targetPoint"/>
                    </mxGeometry>
                </mxCell>
                <mxCell id="38" value="Si" style="ellipse;shape=doubleEllipse;whiteSpace=wrap;html=1;rounded=1;fillStyle=auto;strokeColor=#6c8ebf;fontSize=11;fillColor=#dae8fc;fontColor=#000000;" parent="1" vertex="1">
                    <mxGeometry x="186" y="510" width="30" height="30" as="geometry"/>
                </mxCell>
                <mxCell id="47" style="edgeStyle=none;html=1;strokeColor=#666666;fontSize=11;fontColor=#000000;startArrow=none;" parent="1" source="48" target="45" edge="1">
                    <mxGeometry relative="1" as="geometry"/>
                </mxCell>
                <mxCell id="56" style="edgeStyle=orthogonalEdgeStyle;html=1;exitX=1;exitY=0.5;exitDx=0;exitDy=0;entryX=0.5;entryY=0;entryDx=0;entryDy=0;strokeColor=#666666;fontSize=11;fontColor=#000000;elbow=vertical;startArrow=none;" parent="1" source="57" target="50" edge="1">
                    <mxGeometry relative="1" as="geometry"/>
                </mxCell>
                <mxCell id="40" value="&lt;b&gt;Global LB&amp;nbsp;&lt;br&gt;or IPV6?&lt;br&gt;&lt;/b&gt;" style="rhombus;whiteSpace=wrap;html=1;fillColor=#f5f5f5;strokeColor=#666666;rounded=1;fillStyle=auto;fontSize=11;fontColor=#333333;" parent="1" vertex="1">
                    <mxGeometry x="267" y="451" width="110" height="100" as="geometry"/>
                </mxCell>
                <mxCell id="44" value="" style="group" parent="1" vertex="1" connectable="0">
                    <mxGeometry x="267" y="650" width="110" height="50" as="geometry"/>
                </mxCell>
                <mxCell id="45" value="&lt;div style=&quot;&quot;&gt;&lt;span style=&quot;color: rgb(0, 0, 0); background-color: initial;&quot;&gt;&lt;span style=&quot;white-space: pre;&quot;&gt;&#9;&lt;/span&gt;&amp;nbsp; &amp;nbsp; &amp;nbsp; TCP Proxy&amp;nbsp;&lt;/span&gt;&lt;/div&gt;" style="html=1;rounded=1;fontSize=11;fillColor=#dae8fc;strokeColor=#6c8ebf;fontStyle=1;fillStyle=auto;align=left;" parent="44" vertex="1">
                    <mxGeometry width="110" height="50" as="geometry"/>
                </mxCell>
                <mxCell id="46" value="" style="sketch=0;pointerEvents=1;shadow=0;dashed=0;html=1;strokeColor=none;fillColor=#434445;aspect=fixed;labelPosition=center;verticalLabelPosition=bottom;verticalAlign=top;align=center;outlineConnect=0;shape=mxgraph.vvd.infrastructure;rounded=1;fillStyle=auto;fontSize=11;fontColor=#000000;" parent="44" vertex="1">
                    <mxGeometry x="8" y="10.370000000000005" width="30.15" height="29.25" as="geometry"/>
                </mxCell>
                <mxCell id="49" value="" style="edgeStyle=none;html=1;strokeColor=#666666;fontSize=11;fontColor=#000000;endArrow=none;" parent="1" source="40" target="48" edge="1">
                    <mxGeometry relative="1" as="geometry">
                        <mxPoint x="370" y="575" as="sourcePoint"/>
                        <mxPoint x="370" y="650" as="targetPoint"/>
                    </mxGeometry>
                </mxCell>
                <mxCell id="48" value="Si" style="ellipse;shape=doubleEllipse;whiteSpace=wrap;html=1;rounded=1;fillStyle=auto;strokeColor=#6c8ebf;fontSize=11;fillColor=#dae8fc;fontColor=#000000;" parent="1" vertex="1">
                    <mxGeometry x="307" y="590" width="30" height="30" as="geometry"/>
                </mxCell>
                <mxCell id="61" style="edgeStyle=none;html=1;exitX=0;exitY=0.5;exitDx=0;exitDy=0;entryX=0.75;entryY=0;entryDx=0;entryDy=0;strokeColor=#666666;fontSize=11;fontColor=#000000;elbow=vertical;startArrow=none;" parent="1" source="63" target="45" edge="1">
                    <mxGeometry relative="1" as="geometry">
                        <Array as="points">
                            <mxPoint x="349" y="564"/>
                        </Array>
                    </mxGeometry>
                </mxCell>
                <mxCell id="67" style="edgeStyle=none;html=1;exitX=0.5;exitY=1;exitDx=0;exitDy=0;entryX=0.5;entryY=0;entryDx=0;entryDy=0;strokeColor=#666666;fontSize=11;fontColor=#000000;elbow=vertical;" parent="1" source="50" target="54" edge="1">
                    <mxGeometry relative="1" as="geometry"/>
                </mxCell>
                <mxCell id="50" value="&lt;b&gt;Preservar IPs&lt;br&gt;del cliente?&lt;br&gt;&lt;/b&gt;" style="rhombus;whiteSpace=wrap;html=1;fillColor=#f5f5f5;strokeColor=#666666;rounded=1;fillStyle=auto;fontSize=11;fontColor=#333333;" parent="1" vertex="1">
                    <mxGeometry x="418" y="514" width="110" height="100" as="geometry"/>
                </mxCell>
                <mxCell id="52" value="" style="edgeStyle=none;html=1;entryX=0;entryY=0.5;entryDx=0;entryDy=0;strokeColor=#666666;fontSize=11;fontColor=#000000;endArrow=none;" parent="1" source="31" target="41" edge="1">
                    <mxGeometry relative="1" as="geometry">
                        <mxPoint x="254.99999999999977" y="440" as="sourcePoint"/>
                        <mxPoint x="322" y="461" as="targetPoint"/>
                        <Array as="points"/>
                    </mxGeometry>
                </mxCell>
                <mxCell id="41" value="No" style="ellipse;shape=doubleEllipse;whiteSpace=wrap;html=1;rounded=1;fillStyle=auto;strokeColor=#b85450;fontSize=11;fillColor=#f8cecc;fontColor=#000000;" parent="1" vertex="1">
                    <mxGeometry x="275" y="425" width="30" height="30" as="geometry"/>
                </mxCell>
                <mxCell id="53" value="" style="group;fillColor=#dae8fc;strokeColor=#6c8ebf;rounded=1;" parent="1" vertex="1" connectable="0">
                    <mxGeometry x="393" y="650" width="160" height="50" as="geometry"/>
                </mxCell>
                <mxCell id="54" value="&lt;div style=&quot;&quot;&gt;&lt;span style=&quot;color: rgb(0, 0, 0); background-color: initial;&quot;&gt;&lt;span style=&quot;white-space: pre;&quot;&gt;&#9;&lt;/span&gt;&lt;span style=&quot;white-space: pre;&quot;&gt;&#9;&lt;/span&gt;External network&amp;nbsp;&lt;/span&gt;&lt;/div&gt;&lt;div style=&quot;&quot;&gt;&lt;span style=&quot;color: rgb(0, 0, 0); background-color: initial;&quot;&gt;&lt;span style=&quot;white-space: pre;&quot;&gt;&#9;&lt;/span&gt;&lt;span style=&quot;white-space: pre;&quot;&gt;&#9;&lt;/span&gt;L&lt;/span&gt;&lt;span style=&quot;background-color: initial; color: rgb(0, 0, 0);&quot;&gt;oad Balancer&lt;/span&gt;&lt;/div&gt;" style="html=1;rounded=1;fontSize=11;fillColor=#dae8fc;strokeColor=#6c8ebf;fontStyle=1;fillStyle=auto;align=left;points=[[0,0,0,0,0],[0,0.26,0,0,0],[0,0.5,0,0,0],[0,0.74,0,0,0],[0,1,0,0,0],[0.25,0,0,0,0],[0.25,1,0,0,0],[0.5,0,0,0,0],[0.5,1,0,0,0],[0.75,0,0,0,0],[0.75,1,0,0,0],[0.86,0,0,0,0],[0.93,0,0,0,0],[1,0,0,0,0],[1,0.26,0,0,0],[1,1,0,0,0]];" parent="53" vertex="1">
                    <mxGeometry width="160" height="50" as="geometry"/>
                </mxCell>
                <mxCell id="55" value="" style="sketch=0;pointerEvents=1;shadow=0;dashed=0;html=1;strokeColor=none;fillColor=#434445;aspect=fixed;labelPosition=center;verticalLabelPosition=bottom;verticalAlign=top;align=center;outlineConnect=0;shape=mxgraph.vvd.infrastructure;rounded=1;fillStyle=auto;fontSize=11;fontColor=#000000;" parent="53" vertex="1">
                    <mxGeometry x="10" y="10.369999999999996" width="30.15" height="29.25" as="geometry"/>
                </mxCell>
                <mxCell id="59" value="" style="html=1;exitX=1;exitY=0.5;exitDx=0;exitDy=0;entryX=0;entryY=0.5;entryDx=0;entryDy=0;strokeColor=#666666;fontSize=11;fontColor=#000000;elbow=vertical;endArrow=none;" parent="1" source="40" target="57" edge="1">
                    <mxGeometry relative="1" as="geometry">
                        <mxPoint x="377" y="510.9999999999999" as="sourcePoint"/>
                        <mxPoint x="505" y="520" as="targetPoint"/>
                    </mxGeometry>
                </mxCell>
                <mxCell id="57" value="No" style="ellipse;shape=doubleEllipse;whiteSpace=wrap;html=1;rounded=1;fillStyle=auto;strokeColor=#b85450;fontSize=11;fillColor=#f8cecc;fontColor=#000000;" parent="1" vertex="1">
                    <mxGeometry x="388" y="486" width="30" height="30" as="geometry"/>
                </mxCell>
                <mxCell id="64" value="" style="edgeStyle=none;html=1;exitX=0;exitY=0.5;exitDx=0;exitDy=0;entryX=1;entryY=0.5;entryDx=0;entryDy=0;strokeColor=#666666;fontSize=11;fontColor=#000000;elbow=vertical;endArrow=none;" parent="1" source="50" target="63" edge="1">
                    <mxGeometry relative="1" as="geometry">
                        <mxPoint x="418" y="574" as="sourcePoint"/>
                        <mxPoint x="349.4999999999998" y="650" as="targetPoint"/>
                        <Array as="points"/>
                    </mxGeometry>
                </mxCell>
                <mxCell id="63" value="No" style="ellipse;shape=doubleEllipse;whiteSpace=wrap;html=1;rounded=1;fillStyle=auto;strokeColor=#b85450;fontSize=11;fillColor=#f8cecc;fontColor=#000000;" parent="1" vertex="1">
                    <mxGeometry x="370" y="549" width="30" height="30" as="geometry"/>
                </mxCell>
                <mxCell id="68" value="Si" style="ellipse;shape=doubleEllipse;whiteSpace=wrap;html=1;rounded=1;fillStyle=auto;strokeColor=#6c8ebf;fontSize=11;fillColor=#dae8fc;fontColor=#000000;" parent="1" vertex="1">
                    <mxGeometry x="470" y="614" width="30" height="30" as="geometry"/>
                </mxCell>
                <mxCell id="80" style="edgeStyle=none;html=1;exitX=0.5;exitY=1;exitDx=0;exitDy=0;entryX=0.5;entryY=0;entryDx=0;entryDy=0;strokeColor=#666666;fontSize=11;fontColor=#000000;elbow=vertical;" parent="1" source="78" target="5" edge="1">
                    <mxGeometry relative="1" as="geometry">
                        <Array as="points">
                            <mxPoint x="197" y="30"/>
                            <mxPoint x="280" y="30"/>
                        </Array>
                    </mxGeometry>
                </mxCell>
                <mxCell id="78" value="&lt;div style=&quot;&quot;&gt;&lt;b style=&quot;color: rgb(0, 0, 0); background-color: initial;&quot;&gt;&lt;span style=&quot;white-space: pre;&quot;&gt;&#9;&lt;/span&gt;&lt;span style=&quot;white-space: pre;&quot;&gt;&#9;&lt;/span&gt;IPv6 Clients&lt;/b&gt;&lt;/div&gt;" style="html=1;fillColor=#f5f5f5;fontColor=#333333;strokeColor=#666666;rounded=1;arcSize=6;align=left;" parent="1" vertex="1">
                    <mxGeometry x="127" y="-70" width="140" height="70" as="geometry"/>
                </mxCell>
                <mxCell id="81" style="edgeStyle=none;html=1;entryX=0.5;entryY=0;entryDx=0;entryDy=0;strokeColor=#666666;fontSize=11;fontColor=#000000;elbow=vertical;" parent="1" source="79" target="5" edge="1">
                    <mxGeometry relative="1" as="geometry">
                        <Array as="points">
                            <mxPoint x="360" y="30"/>
                            <mxPoint x="280" y="30"/>
                        </Array>
                    </mxGeometry>
                </mxCell>
                <mxCell id="79" value="&lt;div style=&quot;&quot;&gt;&lt;b style=&quot;color: rgb(0, 0, 0); background-color: initial;&quot;&gt;&lt;span style=&quot;white-space: pre;&quot;&gt;&#9;&lt;/span&gt;&lt;span style=&quot;white-space: pre;&quot;&gt;&#9;&lt;/span&gt;IPv4 Clients&lt;/b&gt;&lt;/div&gt;" style="html=1;fillColor=#f5f5f5;fontColor=#333333;strokeColor=#666666;rounded=1;arcSize=6;align=left;" parent="1" vertex="1">
                    <mxGeometry x="290" y="-70" width="140" height="70" as="geometry"/>
                </mxCell>
                <mxCell id="87" style="edgeStyle=none;html=1;entryX=0;entryY=0.5;entryDx=0;entryDy=0;strokeColor=#666666;fontSize=11;fontColor=#000000;elbow=vertical;" parent="1" source="82" target="86" edge="1">
                    <mxGeometry relative="1" as="geometry"/>
                </mxCell>
                <mxCell id="82" value="&lt;font color=&quot;#000000&quot;&gt;&lt;b&gt;&lt;span style=&quot;white-space: pre;&quot;&gt;&#9;&lt;span style=&quot;white-space: pre;&quot;&gt;&#9;&lt;/span&gt;&lt;/span&gt;Internal&lt;br&gt;&lt;span style=&quot;white-space: pre;&quot;&gt;&#9;&lt;span style=&quot;white-space: pre;&quot;&gt;&#9;&lt;/span&gt;&lt;/span&gt;IPv4 Clients&lt;/b&gt;&lt;/font&gt;" style="html=1;fillColor=#f5f5f5;fontColor=#333333;strokeColor=#666666;rounded=1;arcSize=6;align=left;" parent="1" vertex="1">
                    <mxGeometry x="620" y="60" width="140" height="70" as="geometry"/>
                </mxCell>
                <mxCell id="83" value="" style="verticalLabelPosition=bottom;sketch=0;html=1;fillColor=#282828;strokeColor=none;verticalAlign=top;pointerEvents=1;align=center;shape=mxgraph.cisco_safe.technology_icons.icon1;rounded=1;fillStyle=auto;fontSize=11;fontColor=#000000;" parent="1" vertex="1">
                    <mxGeometry x="630" y="84.25" width="33.08" height="21.5" as="geometry"/>
                </mxCell>
                <mxCell id="84" value="" style="verticalLabelPosition=bottom;sketch=0;html=1;fillColor=#282828;strokeColor=none;verticalAlign=top;pointerEvents=1;align=center;shape=mxgraph.cisco_safe.technology_icons.icon1;rounded=1;fillStyle=auto;fontSize=11;fontColor=#000000;" parent="1" vertex="1">
                    <mxGeometry x="135" y="-45.75" width="33.08" height="21.5" as="geometry"/>
                </mxCell>
                <mxCell id="85" value="" style="verticalLabelPosition=bottom;sketch=0;html=1;fillColor=#282828;strokeColor=none;verticalAlign=top;pointerEvents=1;align=center;shape=mxgraph.cisco_safe.technology_icons.icon1;rounded=1;fillStyle=auto;fontSize=11;fontColor=#000000;" parent="1" vertex="1">
                    <mxGeometry x="300" y="-45.75" width="33.08" height="21.5" as="geometry"/>
                </mxCell>
                <mxCell id="103" style="edgeStyle=none;html=1;exitX=0.5;exitY=1;exitDx=0;exitDy=0;entryX=0.5;entryY=0;entryDx=0;entryDy=0;strokeColor=#4D4D4D;" parent="1" source="86" target="89" edge="1">
                    <mxGeometry relative="1" as="geometry">
                        <mxPoint x="920" y="220" as="targetPoint"/>
                    </mxGeometry>
                </mxCell>
                <mxCell id="104" style="edgeStyle=none;html=1;exitX=0.5;exitY=1;exitDx=0;exitDy=0;entryX=0.5;entryY=0;entryDx=0;entryDy=0;strokeColor=#4D4D4D;" parent="1" source="86" target="90" edge="1">
                    <mxGeometry relative="1" as="geometry">
                        <Array as="points">
                            <mxPoint x="916" y="190"/>
                            <mxPoint x="1070" y="190"/>
                        </Array>
                    </mxGeometry>
                </mxCell>
                <mxCell id="105" style="edgeStyle=none;html=1;exitX=0.5;exitY=1;exitDx=0;exitDy=0;entryX=0.5;entryY=0;entryDx=0;entryDy=0;strokeColor=#4D4D4D;" parent="1" source="86" target="88" edge="1">
                    <mxGeometry relative="1" as="geometry">
                        <Array as="points">
                            <mxPoint x="916" y="190"/>
                            <mxPoint x="770" y="190"/>
                        </Array>
                    </mxGeometry>
                </mxCell>
                <mxCell id="86" value="&lt;font color=&quot;#000000&quot;&gt;&lt;b&gt;Internal&lt;/b&gt;&lt;/font&gt;&lt;br&gt;&lt;font color=&quot;#b3b3b3&quot;&gt;--------------------------------&lt;/font&gt;&lt;br&gt;&lt;font style=&quot;font-size: 11px;&quot; color=&quot;#b3b3b3&quot;&gt;Traffic to/from internal&lt;br&gt;IP addresses&lt;br&gt;&lt;/font&gt;" style="html=1;fillColor=#f5f5f5;fontColor=#333333;strokeColor=#666666;rounded=1;arcSize=6;" parent="1" vertex="1">
                    <mxGeometry x="846" y="60" width="140" height="70" as="geometry"/>
                </mxCell>
                <mxCell id="100" style="edgeStyle=none;html=1;entryX=0.5;entryY=0;entryDx=0;entryDy=0;entryPerimeter=0;strokeColor=#666666;fontSize=11;fontColor=#000000;elbow=vertical;" parent="1" source="88" target="98" edge="1">
                    <mxGeometry relative="1" as="geometry"/>
                </mxCell>
                <mxCell id="88" value="&lt;font color=&quot;#000000&quot;&gt;HTTP or HTTPS&lt;br&gt;traffic&lt;br&gt;&lt;/font&gt;" style="html=1;rounded=1;fontSize=11;fillColor=#d5e8d4;strokeColor=#666666;fontStyle=1;fillStyle=auto;" parent="1" vertex="1">
                    <mxGeometry x="715" y="230" width="110" height="50" as="geometry"/>
                </mxCell>
                <mxCell id="94" style="edgeStyle=none;html=1;entryX=0.5;entryY=0;entryDx=0;entryDy=0;entryPerimeter=0;strokeColor=#666666;fontSize=11;fontColor=#000000;elbow=vertical;" parent="1" source="89" target="92" edge="1">
                    <mxGeometry relative="1" as="geometry">
                        <Array as="points">
                            <mxPoint x="916" y="360"/>
                            <mxPoint x="1000" y="360"/>
                        </Array>
                    </mxGeometry>
                </mxCell>
                <mxCell id="89" value="&lt;font color=&quot;#000000&quot;&gt;TCP traffic&lt;br&gt;&lt;/font&gt;" style="html=1;rounded=1;fontSize=11;fillColor=#d5e8d4;strokeColor=#666666;fontStyle=1;fillStyle=auto;" parent="1" vertex="1">
                    <mxGeometry x="861" y="230" width="110" height="50" as="geometry"/>
                </mxCell>
                <mxCell id="95" style="edgeStyle=none;html=1;entryX=0.5;entryY=0;entryDx=0;entryDy=0;entryPerimeter=0;strokeColor=#666666;fontSize=11;fontColor=#000000;elbow=vertical;" parent="1" source="90" target="92" edge="1">
                    <mxGeometry relative="1" as="geometry">
                        <Array as="points">
                            <mxPoint x="1070" y="360"/>
                            <mxPoint x="1000" y="360"/>
                        </Array>
                    </mxGeometry>
                </mxCell>
                <mxCell id="90" value="&lt;font color=&quot;#000000&quot;&gt;UDP traffic&lt;br&gt;&lt;/font&gt;" style="html=1;rounded=1;fontSize=11;fillColor=#d5e8d4;strokeColor=#666666;fontStyle=1;fillStyle=auto;" parent="1" vertex="1">
                    <mxGeometry x="1015" y="230" width="110" height="50" as="geometry"/>
                </mxCell>
                <mxCell id="91" value="" style="group;fillColor=#dae8fc;strokeColor=#6c8ebf;rounded=1;" parent="1" vertex="1" connectable="0">
                    <mxGeometry x="920" y="650" width="160" height="50" as="geometry"/>
                </mxCell>
                <mxCell id="92" value="&lt;div style=&quot;&quot;&gt;&lt;span style=&quot;color: rgb(0, 0, 0); background-color: initial;&quot;&gt;&lt;span style=&quot;white-space: pre;&quot;&gt;&#9;&lt;/span&gt;&lt;span style=&quot;white-space: pre;&quot;&gt;&#9;&lt;/span&gt;Internal TCP/UDP&amp;nbsp;&lt;/span&gt;&lt;/div&gt;&lt;div style=&quot;&quot;&gt;&lt;span style=&quot;color: rgb(0, 0, 0); background-color: initial;&quot;&gt;&lt;span style=&quot;white-space: pre;&quot;&gt;&#9;&lt;/span&gt;&lt;span style=&quot;white-space: pre;&quot;&gt;&#9;&lt;/span&gt;L&lt;/span&gt;&lt;span style=&quot;background-color: initial; color: rgb(0, 0, 0);&quot;&gt;oad Balancer&lt;/span&gt;&lt;/div&gt;" style="html=1;rounded=1;fontSize=11;fillColor=#dae8fc;strokeColor=#6c8ebf;fontStyle=1;fillStyle=auto;align=left;points=[[0,0,0,0,0],[0,0.26,0,0,0],[0,0.5,0,0,0],[0,0.74,0,0,0],[0,1,0,0,0],[0.25,0,0,0,0],[0.25,1,0,0,0],[0.5,0,0,0,0],[0.5,1,0,0,0],[0.75,0,0,0,0],[0.75,1,0,0,0],[0.86,0,0,0,0],[0.93,0,0,0,0],[1,0,0,0,0],[1,0.26,0,0,0],[1,1,0,0,0]];" parent="91" vertex="1">
                    <mxGeometry width="160" height="50" as="geometry"/>
                </mxCell>
                <mxCell id="93" value="" style="sketch=0;pointerEvents=1;shadow=0;dashed=0;html=1;strokeColor=none;fillColor=#434445;aspect=fixed;labelPosition=center;verticalLabelPosition=bottom;verticalAlign=top;align=center;outlineConnect=0;shape=mxgraph.vvd.infrastructure;rounded=1;fillStyle=auto;fontSize=11;fontColor=#000000;" parent="91" vertex="1">
                    <mxGeometry x="10" y="10.369999999999996" width="30.15" height="29.25" as="geometry"/>
                </mxCell>
                <mxCell id="97" value="" style="group;fillColor=#dae8fc;strokeColor=#6c8ebf;rounded=1;" parent="1" vertex="1" connectable="0">
                    <mxGeometry x="690" y="650" width="160" height="50" as="geometry"/>
                </mxCell>
                <mxCell id="98" value="&lt;div style=&quot;&quot;&gt;&lt;span style=&quot;color: rgb(0, 0, 0); background-color: initial;&quot;&gt;&lt;span style=&quot;white-space: pre;&quot;&gt;&#9;&lt;/span&gt;&lt;span style=&quot;white-space: pre;&quot;&gt;&#9;&lt;/span&gt;Internal HTTP(S)&amp;nbsp;&lt;/span&gt;&lt;/div&gt;&lt;div style=&quot;&quot;&gt;&lt;span style=&quot;color: rgb(0, 0, 0); background-color: initial;&quot;&gt;&lt;span style=&quot;white-space: pre;&quot;&gt;&#9;&lt;/span&gt;&lt;span style=&quot;white-space: pre;&quot;&gt;&#9;&lt;/span&gt;L&lt;/span&gt;&lt;span style=&quot;background-color: initial; color: rgb(0, 0, 0);&quot;&gt;oad Balancer&lt;/span&gt;&lt;/div&gt;" style="html=1;rounded=1;fontSize=11;fillColor=#dae8fc;strokeColor=#6c8ebf;fontStyle=1;fillStyle=auto;align=left;points=[[0,0,0,0,0],[0,0.26,0,0,0],[0,0.5,0,0,0],[0,0.74,0,0,0],[0,1,0,0,0],[0.25,0,0,0,0],[0.25,1,0,0,0],[0.5,0,0,0,0],[0.5,1,0,0,0],[0.75,0,0,0,0],[0.75,1,0,0,0],[0.86,0,0,0,0],[0.93,0,0,0,0],[1,0,0,0,0],[1,0.26,0,0,0],[1,1,0,0,0]];" parent="97" vertex="1">
                    <mxGeometry width="160" height="50" as="geometry"/>
                </mxCell>
                <mxCell id="99" value="" style="sketch=0;pointerEvents=1;shadow=0;dashed=0;html=1;strokeColor=none;fillColor=#434445;aspect=fixed;labelPosition=center;verticalLabelPosition=bottom;verticalAlign=top;align=center;outlineConnect=0;shape=mxgraph.vvd.infrastructure;rounded=1;fillStyle=auto;fontSize=11;fontColor=#000000;" parent="97" vertex="1">
                    <mxGeometry x="10" y="10.369999999999996" width="30.15" height="29.25" as="geometry"/>
                </mxCell>
                <mxCell id="102" value="&lt;b&gt;Google &lt;/b&gt;Cloud Platfom" style="text;html=1;strokeColor=none;fillColor=none;align=center;verticalAlign=middle;whiteSpace=wrap;rounded=0;fillStyle=auto;fontSize=24;fontColor=#666666;" parent="1" vertex="1">
                    <mxGeometry x="-190" y="770" width="270" height="30" as="geometry"/>
                </mxCell>
            </root>
        </mxGraphModel>
    </diagram>
</mxfile>